<?xml version="1.0" encoding="UTF-8"?>
<!DOCTYPE svg PUBLIC "-//W3C//DTD SVG 1.1//EN" "http://www.w3.org/Graphics/SVG/1.1/DTD/svg11.dtd">
<!-- Creator: CorelDRAW 2021 (64-Bit) -->
<svg xmlns="http://www.w3.org/2000/svg" xml:space="preserve" width="24px" height="24px" version="1.1" style="shape-rendering:geometricPrecision; text-rendering:geometricPrecision; image-rendering:optimizeQuality; fill-rule:evenodd; clip-rule:evenodd"
viewBox="0 0 1.46 1.47"
 xmlns:xlink="http://www.w3.org/1999/xlink"
 xmlns:xodm="http://www.corel.com/coreldraw/odm/2003">
 <defs>
  <style type="text/css">
   <![CDATA[
    .fil0 {fill:black}
   ]]>
  </style>
 </defs>
 <g id="Layer_x0020_1">
  <metadata id="CorelCorpID_0Corel-Layer"/>
  <g id="_2851544602400">
   <polygon class="fil0" points="0.92,1.03 0.8,1.03 0.8,0.44 0.92,0.44 "/>
   <polygon class="fil0" points="0.67,1.03 0.54,1.03 0.54,0.44 0.67,0.44 "/>
  </g>
  <path class="fil0" d="M0.11 0.75c0,-0.19 0.05,-0.33 0.18,-0.46 0.1,-0.09 0.24,-0.18 0.43,-0.18l0.03 0c0.32,0 0.6,0.28 0.6,0.61l0 0.03c0,0.19 -0.08,0.33 -0.18,0.42 -0.08,0.09 -0.17,0.14 -0.29,0.17 -0.21,0.05 -0.43,-0.01 -0.59,-0.17 -0.11,-0.1 -0.18,-0.26 -0.18,-0.42zm-0.11 -0.05c0,0.1 0,0.12 0.02,0.22 0.03,0.09 0.06,0.17 0.11,0.24 0.07,0.1 0.17,0.18 0.28,0.23 0.08,0.04 0.19,0.08 0.28,0.08 0.14,0 0.23,-0.01 0.36,-0.07l0.08 -0.05c0.08,-0.05 0.14,-0.11 0.2,-0.19 0.02,-0.03 0.05,-0.08 0.06,-0.11 0.04,-0.08 0.07,-0.19 0.07,-0.28 0,-0.14 0,-0.23 -0.07,-0.35 -0.02,-0.04 -0.03,-0.08 -0.06,-0.11l-0.04 -0.05c-0.04,-0.05 -0.08,-0.08 -0.13,-0.12 -0.04,-0.03 -0.07,-0.05 -0.11,-0.07 -0.22,-0.11 -0.48,-0.09 -0.69,0.03 -0.01,0.01 -0.01,0.01 -0.02,0.02 -0.03,0.01 -0.08,0.05 -0.1,0.07 -0.08,0.08 -0.12,0.13 -0.17,0.23 -0.03,0.07 -0.07,0.18 -0.07,0.28z"/>
 </g>
</svg>
