<?xml version="1.0" encoding="UTF-8"?>
<!DOCTYPE svg PUBLIC "-//W3C//DTD SVG 1.1//EN" "http://www.w3.org/Graphics/SVG/1.1/DTD/svg11.dtd">
<!-- Creator: CorelDRAW 2021 (64-Bit) -->
<svg xmlns="http://www.w3.org/2000/svg" xml:space="preserve" width="24px" height="24px" version="1.1" style="shape-rendering:geometricPrecision; text-rendering:geometricPrecision; image-rendering:optimizeQuality; fill-rule:evenodd; clip-rule:evenodd"
viewBox="0 0 2.16 2.17"
 xmlns:xlink="http://www.w3.org/1999/xlink"
 xmlns:xodm="http://www.corel.com/coreldraw/odm/2003">
 <defs>
  <style type="text/css">
   <![CDATA[
    .fil0 {fill:black}
   ]]>
  </style>
 </defs>
 <g id="Layer_x0020_1">
  <metadata id="CorelCorpID_0Corel-Layer"/>
  <path class="fil0" d="M0.16 1.11c0,-0.28 0.08,-0.49 0.27,-0.68 0.14,-0.14 0.35,-0.27 0.63,-0.27l0.05 0c0.48,0 0.89,0.42 0.89,0.9l0 0.05c0,0.27 -0.13,0.49 -0.27,0.63 -0.12,0.11 -0.26,0.2 -0.42,0.24 -0.32,0.07 -0.65,-0.02 -0.88,-0.24 -0.16,-0.17 -0.27,-0.39 -0.27,-0.63zm-0.16 -0.08c0,0.15 0,0.18 0.03,0.33 0.04,0.13 0.1,0.25 0.17,0.35 0.1,0.15 0.25,0.27 0.41,0.35 0.12,0.06 0.28,0.11 0.41,0.11 0.21,0 0.34,-0.01 0.52,-0.11l0.12 -0.06c0.13,-0.08 0.21,-0.17 0.3,-0.29 0.03,-0.04 0.07,-0.11 0.1,-0.16 0.05,-0.11 0.1,-0.28 0.1,-0.41 0,-0.2 -0.01,-0.34 -0.1,-0.52 -0.03,-0.06 -0.06,-0.11 -0.09,-0.16l-0.06 -0.07c-0.07,-0.09 -0.12,-0.13 -0.2,-0.19 -0.05,-0.04 -0.1,-0.06 -0.16,-0.09 -0.32,-0.16 -0.71,-0.14 -1.02,0.04 -0.01,0.01 -0.02,0.01 -0.03,0.02 -0.04,0.03 -0.12,0.09 -0.15,0.12 -0.11,0.1 -0.17,0.18 -0.25,0.33 -0.05,0.1 -0.1,0.26 -0.1,0.41z"/>
  <g id="_2851554259280">
   <path class="fil0" d="M1.46 1.51c-0.02,0 -0.02,-0.01 -0.04,-0.02l-0.33 -0.24c-0.03,-0.02 -0.05,-0.04 -0.08,-0.06 -0.02,-0.02 -0.04,-0.04 -0.07,-0.05 -0.02,-0.02 -0.06,-0.05 -0.07,-0.06l0.44 -0.32c0.01,-0.01 0.02,-0.02 0.03,-0.03 0.02,-0.01 0.03,-0.01 0.04,-0.03 0.03,-0.01 0.05,-0.03 0.08,-0.05l0 0.86z"/>
   <polygon class="fil0" points="0.7,1.51 0.81,1.51 0.81,0.65 0.7,0.65 "/>
  </g>
 </g>
</svg>
