<?xml version="1.0" encoding="UTF-8"?>
<!DOCTYPE svg PUBLIC "-//W3C//DTD SVG 1.1//EN" "http://www.w3.org/Graphics/SVG/1.1/DTD/svg11.dtd">
<!-- Creator: CorelDRAW 2021 (64-Bit) -->
<svg xmlns="http://www.w3.org/2000/svg" xml:space="preserve" width="24px" height="24px" version="1.1" style="shape-rendering:geometricPrecision; text-rendering:geometricPrecision; image-rendering:optimizeQuality; fill-rule:evenodd; clip-rule:evenodd"
viewBox="0 0 4.48 4.49"
 xmlns:xlink="http://www.w3.org/1999/xlink"
 xmlns:xodm="http://www.corel.com/coreldraw/odm/2003">
 <defs>
  <style type="text/css">
   <![CDATA[
    .fil0 {fill:black}
   ]]>
  </style>
 </defs>
 <g id="Layer_x0020_1">
  <metadata id="CorelCorpID_0Corel-Layer"/>
  <path class="fil0" d="M4.14 2.3c0,-0.57 -0.15,-1.01 -0.55,-1.4 -0.29,-0.29 -0.73,-0.56 -1.3,-0.56l-0.1 0c-1,0 -1.85,0.86 -1.85,1.85l0 0.11c0,0.57 0.26,1.01 0.55,1.29 0.25,0.25 0.54,0.43 0.89,0.51 0.66,0.16 1.34,-0.03 1.81,-0.51 0.33,-0.33 0.55,-0.79 0.55,-1.29zm0.34 -0.17c0,0.31 0.01,0.38 -0.07,0.7 -0.07,0.26 -0.19,0.5 -0.34,0.71 -0.22,0.31 -0.51,0.56 -0.86,0.73 -0.24,0.11 -0.58,0.22 -0.84,0.22 -0.43,0 -0.71,-0.03 -1.09,-0.21l-0.25 -0.14c-0.26,-0.17 -0.43,-0.35 -0.61,-0.59 -0.07,-0.09 -0.15,-0.23 -0.2,-0.33 -0.12,-0.25 -0.22,-0.58 -0.22,-0.85 0,-0.43 0.02,-0.7 0.21,-1.09 0.06,-0.12 0.12,-0.23 0.2,-0.33l0.11 -0.15c0.14,-0.17 0.24,-0.26 0.42,-0.38 0.11,-0.08 0.21,-0.14 0.34,-0.2 0.66,-0.33 1.46,-0.28 2.1,0.09 0.02,0.02 0.04,0.03 0.07,0.05 0.08,0.05 0.24,0.17 0.31,0.23 0.23,0.23 0.36,0.39 0.51,0.69 0.1,0.21 0.21,0.55 0.21,0.85z"/>
  <g id="_2816165008928">
   <path class="fil0" d="M1.47 3.14c0.03,-0.02 0.04,-0.03 0.07,-0.05l0.7 -0.51c0.05,-0.04 0.1,-0.08 0.15,-0.12 0.05,-0.03 0.1,-0.07 0.16,-0.11 0.04,-0.03 0.13,-0.08 0.15,-0.12l-0.92 -0.66c-0.02,-0.02 -0.04,-0.03 -0.07,-0.05 -0.03,-0.02 -0.05,-0.04 -0.08,-0.06 -0.06,-0.04 -0.1,-0.08 -0.16,-0.11l0 1.79z"/>
   <polygon class="fil0" points="3.04,3.14 2.81,3.14 2.81,1.35 3.04,1.35 "/>
  </g>
 </g>
</svg>
