<?xml version="1.0" encoding="UTF-8"?>
<!DOCTYPE svg PUBLIC "-//W3C//DTD SVG 1.1//EN" "http://www.w3.org/Graphics/SVG/1.1/DTD/svg11.dtd">
<!-- Creator: CorelDRAW 2021 (64-Bit) -->
<svg xmlns="http://www.w3.org/2000/svg" xml:space="preserve" width="24px" height="24px" version="1.1" style="shape-rendering:geometricPrecision; text-rendering:geometricPrecision; image-rendering:optimizeQuality; fill-rule:evenodd; clip-rule:evenodd"
viewBox="0 0 2.94 2.94"
 xmlns:xlink="http://www.w3.org/1999/xlink"
 xmlns:xodm="http://www.corel.com/coreldraw/odm/2003">
 <defs>
  <style type="text/css">
   <![CDATA[
    .fil0 {fill:black}
   ]]>
  </style>
 </defs>
 <g id="Layer_x0020_1">
  <metadata id="CorelCorpID_0Corel-Layer"/>
  <path class="fil0" d="M0.22 1.51c0,-0.38 0.1,-0.66 0.36,-0.92 0.19,-0.19 0.48,-0.37 0.85,-0.37l0.07 0c0.66,0 1.22,0.56 1.22,1.22l0 0.07c0,0.37 -0.18,0.66 -0.37,0.84 -0.16,0.17 -0.35,0.28 -0.58,0.34 -0.43,0.1 -0.88,-0.03 -1.19,-0.34 -0.21,-0.21 -0.36,-0.52 -0.36,-0.84zm-0.22 -0.11c0,0.2 -0.01,0.25 0.05,0.45 0.04,0.17 0.12,0.33 0.22,0.47 0.14,0.2 0.33,0.37 0.56,0.48 0.16,0.07 0.38,0.14 0.56,0.14 0.28,0 0.46,-0.02 0.71,-0.14l0.16 -0.09c0.17,-0.11 0.28,-0.23 0.4,-0.38 0.05,-0.06 0.1,-0.16 0.13,-0.22 0.08,-0.16 0.15,-0.38 0.15,-0.56 0,-0.28 -0.02,-0.46 -0.14,-0.71 -0.04,-0.08 -0.08,-0.15 -0.13,-0.22l-0.08 -0.1c-0.09,-0.11 -0.16,-0.16 -0.27,-0.25 -0.07,-0.05 -0.14,-0.09 -0.22,-0.13 -0.43,-0.21 -0.96,-0.18 -1.38,0.06 -0.01,0.01 -0.03,0.02 -0.05,0.04 -0.05,0.03 -0.15,0.11 -0.2,0.15 -0.15,0.15 -0.23,0.25 -0.33,0.45 -0.07,0.13 -0.14,0.36 -0.14,0.56z"/>
  <path class="fil0" d="M1.06 2.06c0.03,-0.02 0.03,-0.02 0.05,-0.04l0.46 -0.33c0.03,-0.03 0.07,-0.05 0.1,-0.08 0.03,-0.02 0.07,-0.04 0.1,-0.07 0.03,-0.02 0.09,-0.06 0.1,-0.08l-0.6 -0.43c-0.02,-0.01 -0.03,-0.02 -0.05,-0.04 -0.02,-0.01 -0.03,-0.02 -0.05,-0.03 -0.04,-0.03 -0.07,-0.06 -0.11,-0.08l0 1.18z"/>
 </g>
</svg>
